<mxfile host="app.diagrams.net" modified="2024-05-20T02:03:20.274Z" agent="Mozilla/5.0 (Windows NT 10.0; Win64; x64) AppleWebKit/537.36 (KHTML, like Gecko) Chrome/122.0.0.0 YaBrowser/24.4.0.0 Safari/537.36" etag="Fko3v1udMbqJoJQQCqMR" version="24.4.4" type="device">
  <diagram name="Страница — 1" id="6SwmOz3kL1Dp4-irJy59">
    <mxGraphModel dx="821" dy="-430" grid="0" gridSize="10" guides="1" tooltips="1" connect="1" arrows="1" fold="1" page="0" pageScale="1" pageWidth="3300" pageHeight="4681" math="0" shadow="0">
      <root>
        <mxCell id="0" />
        <mxCell id="1" parent="0" />
        <mxCell id="loVugANdDTNF3pcC0bMG-1" value="Client" style="swimlane;fontStyle=1;align=center;verticalAlign=top;childLayout=stackLayout;horizontal=1;startSize=26;horizontalStack=0;resizeParent=1;resizeParentMax=0;resizeLast=0;collapsible=1;marginBottom=0;whiteSpace=wrap;html=1;" vertex="1" parent="1">
          <mxGeometry x="740" y="1390" width="340" height="164" as="geometry" />
        </mxCell>
        <mxCell id="loVugANdDTNF3pcC0bMG-2" value="- name: String" style="text;strokeColor=none;fillColor=none;align=left;verticalAlign=top;spacingLeft=4;spacingRight=4;overflow=hidden;rotatable=0;points=[[0,0.5],[1,0.5]];portConstraint=eastwest;whiteSpace=wrap;html=1;" vertex="1" parent="loVugANdDTNF3pcC0bMG-1">
          <mxGeometry y="26" width="340" height="26" as="geometry" />
        </mxCell>
        <mxCell id="loVugANdDTNF3pcC0bMG-3" value="- phoneNumber: Integer" style="text;strokeColor=none;fillColor=none;align=left;verticalAlign=top;spacingLeft=4;spacingRight=4;overflow=hidden;rotatable=0;points=[[0,0.5],[1,0.5]];portConstraint=eastwest;whiteSpace=wrap;html=1;" vertex="1" parent="loVugANdDTNF3pcC0bMG-1">
          <mxGeometry y="52" width="340" height="26" as="geometry" />
        </mxCell>
        <mxCell id="loVugANdDTNF3pcC0bMG-4" value="" style="line;strokeWidth=1;fillColor=none;align=left;verticalAlign=middle;spacingTop=-1;spacingLeft=3;spacingRight=3;rotatable=0;labelPosition=right;points=[];portConstraint=eastwest;strokeColor=inherit;" vertex="1" parent="loVugANdDTNF3pcC0bMG-1">
          <mxGeometry y="78" width="340" height="8" as="geometry" />
        </mxCell>
        <mxCell id="loVugANdDTNF3pcC0bMG-5" value="+ doSearch(agency: Agency): Object" style="text;strokeColor=none;fillColor=none;align=left;verticalAlign=top;spacingLeft=4;spacingRight=4;overflow=hidden;rotatable=0;points=[[0,0.5],[1,0.5]];portConstraint=eastwest;whiteSpace=wrap;html=1;" vertex="1" parent="loVugANdDTNF3pcC0bMG-1">
          <mxGeometry y="86" width="340" height="26" as="geometry" />
        </mxCell>
        <mxCell id="loVugANdDTNF3pcC0bMG-6" value="&lt;div&gt;+ makeDeal(agency: Agency): Deal&lt;/div&gt;" style="text;strokeColor=none;fillColor=none;align=left;verticalAlign=top;spacingLeft=4;spacingRight=4;overflow=hidden;rotatable=0;points=[[0,0.5],[1,0.5]];portConstraint=eastwest;whiteSpace=wrap;html=1;" vertex="1" parent="loVugANdDTNF3pcC0bMG-1">
          <mxGeometry y="112" width="340" height="26" as="geometry" />
        </mxCell>
        <mxCell id="loVugANdDTNF3pcC0bMG-7" value="&lt;div&gt;+ doInspection(object: Object): void&lt;/div&gt;" style="text;strokeColor=none;fillColor=none;align=left;verticalAlign=top;spacingLeft=4;spacingRight=4;overflow=hidden;rotatable=0;points=[[0,0.5],[1,0.5]];portConstraint=eastwest;whiteSpace=wrap;html=1;" vertex="1" parent="loVugANdDTNF3pcC0bMG-1">
          <mxGeometry y="138" width="340" height="26" as="geometry" />
        </mxCell>
        <mxCell id="loVugANdDTNF3pcC0bMG-8" style="edgeStyle=orthogonalEdgeStyle;rounded=0;orthogonalLoop=1;jettySize=auto;html=1;exitX=0.474;exitY=1.026;exitDx=0;exitDy=0;exitPerimeter=0;entryX=0.5;entryY=0;entryDx=0;entryDy=0;" edge="1" parent="1" source="loVugANdDTNF3pcC0bMG-7" target="loVugANdDTNF3pcC0bMG-10">
          <mxGeometry relative="1" as="geometry">
            <mxPoint x="920" y="1634" as="targetPoint" />
          </mxGeometry>
        </mxCell>
        <mxCell id="loVugANdDTNF3pcC0bMG-9" value="Обращается в&lt;div&gt;агентство&lt;/div&gt;" style="edgeLabel;html=1;align=center;verticalAlign=middle;resizable=0;points=[];" vertex="1" connectable="0" parent="loVugANdDTNF3pcC0bMG-8">
          <mxGeometry x="-0.3782" y="2" relative="1" as="geometry">
            <mxPoint x="37" y="-8" as="offset" />
          </mxGeometry>
        </mxCell>
        <mxCell id="loVugANdDTNF3pcC0bMG-10" value="Agency" style="swimlane;fontStyle=1;align=center;verticalAlign=top;childLayout=stackLayout;horizontal=1;startSize=26;horizontalStack=0;resizeParent=1;resizeParentMax=0;resizeLast=0;collapsible=1;marginBottom=0;whiteSpace=wrap;html=1;" vertex="1" parent="1">
          <mxGeometry x="760" y="1734" width="390" height="190" as="geometry">
            <mxRectangle x="30" y="150" width="70" height="30" as="alternateBounds" />
          </mxGeometry>
        </mxCell>
        <mxCell id="loVugANdDTNF3pcC0bMG-11" value="- name: String" style="text;strokeColor=none;fillColor=none;align=left;verticalAlign=top;spacingLeft=4;spacingRight=4;overflow=hidden;rotatable=0;points=[[0,0.5],[1,0.5]];portConstraint=eastwest;whiteSpace=wrap;html=1;" vertex="1" parent="loVugANdDTNF3pcC0bMG-10">
          <mxGeometry y="26" width="390" height="26" as="geometry" />
        </mxCell>
        <mxCell id="loVugANdDTNF3pcC0bMG-12" value="- objects: List&amp;lt;Object&amp;gt;" style="text;strokeColor=none;fillColor=none;align=left;verticalAlign=top;spacingLeft=4;spacingRight=4;overflow=hidden;rotatable=0;points=[[0,0.5],[1,0.5]];portConstraint=eastwest;whiteSpace=wrap;html=1;" vertex="1" parent="loVugANdDTNF3pcC0bMG-10">
          <mxGeometry y="52" width="390" height="26" as="geometry" />
        </mxCell>
        <mxCell id="loVugANdDTNF3pcC0bMG-13" value="- agents: List&amp;lt;Agent&amp;gt;" style="text;strokeColor=none;fillColor=none;align=left;verticalAlign=top;spacingLeft=4;spacingRight=4;overflow=hidden;rotatable=0;points=[[0,0.5],[1,0.5]];portConstraint=eastwest;whiteSpace=wrap;html=1;" vertex="1" parent="loVugANdDTNF3pcC0bMG-10">
          <mxGeometry y="78" width="390" height="26" as="geometry" />
        </mxCell>
        <mxCell id="loVugANdDTNF3pcC0bMG-14" value="" style="line;strokeWidth=1;fillColor=none;align=left;verticalAlign=middle;spacingTop=-1;spacingLeft=3;spacingRight=3;rotatable=0;labelPosition=right;points=[];portConstraint=eastwest;strokeColor=inherit;" vertex="1" parent="loVugANdDTNF3pcC0bMG-10">
          <mxGeometry y="104" width="390" height="8" as="geometry" />
        </mxCell>
        <mxCell id="loVugANdDTNF3pcC0bMG-15" value="+ setDeal(deal: Deal, customer: Client): void" style="text;strokeColor=none;fillColor=none;align=left;verticalAlign=top;spacingLeft=4;spacingRight=4;overflow=hidden;rotatable=0;points=[[0,0.5],[1,0.5]];portConstraint=eastwest;whiteSpace=wrap;html=1;" vertex="1" parent="loVugANdDTNF3pcC0bMG-10">
          <mxGeometry y="112" width="390" height="26" as="geometry" />
        </mxCell>
        <mxCell id="loVugANdDTNF3pcC0bMG-16" value="+ createInspection(agent: Agent, customer: Client,object: Object): void" style="text;strokeColor=none;fillColor=none;align=left;verticalAlign=top;spacingLeft=4;spacingRight=4;overflow=hidden;rotatable=0;points=[[0,0.5],[1,0.5]];portConstraint=eastwest;whiteSpace=wrap;html=1;" vertex="1" parent="loVugANdDTNF3pcC0bMG-10">
          <mxGeometry y="138" width="390" height="26" as="geometry" />
        </mxCell>
        <mxCell id="loVugANdDTNF3pcC0bMG-17" value="+&amp;nbsp;" style="text;strokeColor=none;fillColor=none;align=left;verticalAlign=top;spacingLeft=4;spacingRight=4;overflow=hidden;rotatable=0;points=[[0,0.5],[1,0.5]];portConstraint=eastwest;whiteSpace=wrap;html=1;" vertex="1" parent="loVugANdDTNF3pcC0bMG-10">
          <mxGeometry y="164" width="390" height="26" as="geometry" />
        </mxCell>
        <mxCell id="loVugANdDTNF3pcC0bMG-18" value="Agent" style="swimlane;fontStyle=1;align=center;verticalAlign=top;childLayout=stackLayout;horizontal=1;startSize=26;horizontalStack=0;resizeParent=1;resizeParentMax=0;resizeLast=0;collapsible=1;marginBottom=0;whiteSpace=wrap;html=1;" vertex="1" parent="1">
          <mxGeometry x="1120" y="1584" width="213" height="112" as="geometry" />
        </mxCell>
        <mxCell id="loVugANdDTNF3pcC0bMG-19" value="- name: String" style="text;strokeColor=none;fillColor=none;align=left;verticalAlign=top;spacingLeft=4;spacingRight=4;overflow=hidden;rotatable=0;points=[[0,0.5],[1,0.5]];portConstraint=eastwest;whiteSpace=wrap;html=1;" vertex="1" parent="loVugANdDTNF3pcC0bMG-18">
          <mxGeometry y="26" width="213" height="26" as="geometry" />
        </mxCell>
        <mxCell id="loVugANdDTNF3pcC0bMG-20" value="- phoneNumber: Integer" style="text;strokeColor=none;fillColor=none;align=left;verticalAlign=top;spacingLeft=4;spacingRight=4;overflow=hidden;rotatable=0;points=[[0,0.5],[1,0.5]];portConstraint=eastwest;whiteSpace=wrap;html=1;" vertex="1" parent="loVugANdDTNF3pcC0bMG-18">
          <mxGeometry y="52" width="213" height="26" as="geometry" />
        </mxCell>
        <mxCell id="loVugANdDTNF3pcC0bMG-21" value="" style="line;strokeWidth=1;fillColor=none;align=left;verticalAlign=middle;spacingTop=-1;spacingLeft=3;spacingRight=3;rotatable=0;labelPosition=right;points=[];portConstraint=eastwest;strokeColor=inherit;" vertex="1" parent="loVugANdDTNF3pcC0bMG-18">
          <mxGeometry y="78" width="213" height="8" as="geometry" />
        </mxCell>
        <mxCell id="loVugANdDTNF3pcC0bMG-22" value="+ doInspection(object: Object): void" style="text;strokeColor=none;fillColor=none;align=left;verticalAlign=top;spacingLeft=4;spacingRight=4;overflow=hidden;rotatable=0;points=[[0,0.5],[1,0.5]];portConstraint=eastwest;whiteSpace=wrap;html=1;" vertex="1" parent="loVugANdDTNF3pcC0bMG-18">
          <mxGeometry y="86" width="213" height="26" as="geometry" />
        </mxCell>
        <mxCell id="loVugANdDTNF3pcC0bMG-23" value="Deal" style="swimlane;fontStyle=1;align=center;verticalAlign=top;childLayout=stackLayout;horizontal=1;startSize=26;horizontalStack=0;resizeParent=1;resizeParentMax=0;resizeLast=0;collapsible=1;marginBottom=0;whiteSpace=wrap;html=1;" vertex="1" parent="1">
          <mxGeometry x="430" y="1554" width="215" height="160" as="geometry" />
        </mxCell>
        <mxCell id="loVugANdDTNF3pcC0bMG-24" value="- number: Integer" style="text;strokeColor=none;fillColor=none;align=left;verticalAlign=top;spacingLeft=4;spacingRight=4;overflow=hidden;rotatable=0;points=[[0,0.5],[1,0.5]];portConstraint=eastwest;whiteSpace=wrap;html=1;" vertex="1" parent="loVugANdDTNF3pcC0bMG-23">
          <mxGeometry y="26" width="215" height="26" as="geometry" />
        </mxCell>
        <mxCell id="loVugANdDTNF3pcC0bMG-25" value="- customer: Client" style="text;strokeColor=none;fillColor=none;align=left;verticalAlign=top;spacingLeft=4;spacingRight=4;overflow=hidden;rotatable=0;points=[[0,0.5],[1,0.5]];portConstraint=eastwest;whiteSpace=wrap;html=1;" vertex="1" parent="loVugANdDTNF3pcC0bMG-23">
          <mxGeometry y="52" width="215" height="26" as="geometry" />
        </mxCell>
        <mxCell id="loVugANdDTNF3pcC0bMG-26" value="" style="line;strokeWidth=1;fillColor=none;align=left;verticalAlign=middle;spacingTop=-1;spacingLeft=3;spacingRight=3;rotatable=0;labelPosition=right;points=[];portConstraint=eastwest;strokeColor=inherit;" vertex="1" parent="loVugANdDTNF3pcC0bMG-23">
          <mxGeometry y="78" width="215" height="8" as="geometry" />
        </mxCell>
        <mxCell id="loVugANdDTNF3pcC0bMG-27" value="&lt;span style=&quot;text-wrap: nowrap; background-color: rgb(255, 255, 255);&quot;&gt;+ getDeal(&lt;/span&gt;&lt;span style=&quot;background-color: rgb(255, 255, 255); text-wrap: nowrap;&quot;&gt;): Deal&lt;/span&gt;" style="text;strokeColor=none;fillColor=none;align=left;verticalAlign=top;spacingLeft=4;spacingRight=4;overflow=hidden;rotatable=0;points=[[0,0.5],[1,0.5]];portConstraint=eastwest;whiteSpace=wrap;html=1;" vertex="1" parent="loVugANdDTNF3pcC0bMG-23">
          <mxGeometry y="86" width="215" height="28" as="geometry" />
        </mxCell>
        <mxCell id="loVugANdDTNF3pcC0bMG-28" value="&lt;span style=&quot;text-wrap: nowrap; background-color: rgb(255, 255, 255);&quot;&gt;+ createDeal(number: Integer,&lt;/span&gt;&lt;div&gt;&lt;span style=&quot;text-wrap: nowrap; background-color: rgb(255, 255, 255);&quot;&gt;object: Object,&lt;/span&gt;&lt;span style=&quot;background-color: rgb(255, 255, 255); text-wrap: nowrap;&quot;&gt;&amp;nbsp;customer: Client): void&lt;/span&gt;&lt;/div&gt;" style="text;strokeColor=none;fillColor=none;align=left;verticalAlign=top;spacingLeft=4;spacingRight=4;overflow=hidden;rotatable=0;points=[[0,0.5],[1,0.5]];portConstraint=eastwest;whiteSpace=wrap;html=1;" vertex="1" parent="loVugANdDTNF3pcC0bMG-23">
          <mxGeometry y="114" width="215" height="46" as="geometry" />
        </mxCell>
        <mxCell id="loVugANdDTNF3pcC0bMG-29" value="Object" style="swimlane;fontStyle=1;align=center;verticalAlign=top;childLayout=stackLayout;horizontal=1;startSize=26;horizontalStack=0;resizeParent=1;resizeParentMax=0;resizeLast=0;collapsible=1;marginBottom=0;whiteSpace=wrap;html=1;" vertex="1" parent="1">
          <mxGeometry x="457.5" y="1774" width="160" height="138" as="geometry" />
        </mxCell>
        <mxCell id="loVugANdDTNF3pcC0bMG-30" value="- address: String" style="text;strokeColor=none;fillColor=none;align=left;verticalAlign=top;spacingLeft=4;spacingRight=4;overflow=hidden;rotatable=0;points=[[0,0.5],[1,0.5]];portConstraint=eastwest;whiteSpace=wrap;html=1;" vertex="1" parent="loVugANdDTNF3pcC0bMG-29">
          <mxGeometry y="26" width="160" height="26" as="geometry" />
        </mxCell>
        <mxCell id="loVugANdDTNF3pcC0bMG-31" value="- name: String" style="text;strokeColor=none;fillColor=none;align=left;verticalAlign=top;spacingLeft=4;spacingRight=4;overflow=hidden;rotatable=0;points=[[0,0.5],[1,0.5]];portConstraint=eastwest;whiteSpace=wrap;html=1;" vertex="1" parent="loVugANdDTNF3pcC0bMG-29">
          <mxGeometry y="52" width="160" height="26" as="geometry" />
        </mxCell>
        <mxCell id="loVugANdDTNF3pcC0bMG-32" value="- cost: Integer" style="text;strokeColor=none;fillColor=none;align=left;verticalAlign=top;spacingLeft=4;spacingRight=4;overflow=hidden;rotatable=0;points=[[0,0.5],[1,0.5]];portConstraint=eastwest;whiteSpace=wrap;html=1;" vertex="1" parent="loVugANdDTNF3pcC0bMG-29">
          <mxGeometry y="78" width="160" height="26" as="geometry" />
        </mxCell>
        <mxCell id="loVugANdDTNF3pcC0bMG-33" value="" style="line;strokeWidth=1;fillColor=none;align=left;verticalAlign=middle;spacingTop=-1;spacingLeft=3;spacingRight=3;rotatable=0;labelPosition=right;points=[];portConstraint=eastwest;strokeColor=inherit;" vertex="1" parent="loVugANdDTNF3pcC0bMG-29">
          <mxGeometry y="104" width="160" height="8" as="geometry" />
        </mxCell>
        <mxCell id="loVugANdDTNF3pcC0bMG-34" value="&lt;span style=&quot;text-wrap: nowrap; background-color: rgb(255, 255, 255);&quot;&gt;+ getObject(): Object&lt;/span&gt;" style="text;strokeColor=none;fillColor=none;align=left;verticalAlign=top;spacingLeft=4;spacingRight=4;overflow=hidden;rotatable=0;points=[[0,0.5],[1,0.5]];portConstraint=eastwest;whiteSpace=wrap;html=1;" vertex="1" parent="loVugANdDTNF3pcC0bMG-29">
          <mxGeometry y="112" width="160" height="26" as="geometry" />
        </mxCell>
        <mxCell id="loVugANdDTNF3pcC0bMG-35" style="edgeStyle=orthogonalEdgeStyle;rounded=0;orthogonalLoop=1;jettySize=auto;html=1;exitX=1;exitY=0.5;exitDx=0;exitDy=0;entryX=0.515;entryY=1.026;entryDx=0;entryDy=0;entryPerimeter=0;" edge="1" parent="1" source="loVugANdDTNF3pcC0bMG-13" target="loVugANdDTNF3pcC0bMG-22">
          <mxGeometry relative="1" as="geometry">
            <mxPoint x="1230" y="1714" as="targetPoint" />
            <mxPoint x="911" y="1565" as="sourcePoint" />
            <Array as="points">
              <mxPoint x="1230" y="1825" />
            </Array>
          </mxGeometry>
        </mxCell>
        <mxCell id="loVugANdDTNF3pcC0bMG-36" value="Передача агенту&lt;div&gt;для работы&lt;/div&gt;" style="edgeLabel;html=1;align=center;verticalAlign=middle;resizable=0;points=[];" vertex="1" connectable="0" parent="loVugANdDTNF3pcC0bMG-35">
          <mxGeometry x="-0.3782" y="2" relative="1" as="geometry">
            <mxPoint x="65" y="-63" as="offset" />
          </mxGeometry>
        </mxCell>
        <mxCell id="loVugANdDTNF3pcC0bMG-37" value="1" style="text;html=1;align=center;verticalAlign=middle;resizable=0;points=[];autosize=1;strokeColor=none;fillColor=none;" vertex="1" parent="1">
          <mxGeometry x="1150" y="1824" width="30" height="30" as="geometry" />
        </mxCell>
        <mxCell id="loVugANdDTNF3pcC0bMG-38" value="1..*" style="text;html=1;align=center;verticalAlign=middle;resizable=0;points=[];autosize=1;strokeColor=none;fillColor=none;" vertex="1" parent="1">
          <mxGeometry x="1225" y="1696" width="40" height="30" as="geometry" />
        </mxCell>
        <mxCell id="loVugANdDTNF3pcC0bMG-39" value="*" style="text;html=1;align=center;verticalAlign=middle;resizable=0;points=[];autosize=1;strokeColor=none;fillColor=none;" vertex="1" parent="1">
          <mxGeometry x="900" y="1554" width="30" height="30" as="geometry" />
        </mxCell>
        <mxCell id="loVugANdDTNF3pcC0bMG-40" value="1" style="text;html=1;align=center;verticalAlign=middle;resizable=0;points=[];autosize=1;strokeColor=none;fillColor=none;" vertex="1" parent="1">
          <mxGeometry x="950" y="1704" width="30" height="30" as="geometry" />
        </mxCell>
        <mxCell id="loVugANdDTNF3pcC0bMG-41" style="edgeStyle=orthogonalEdgeStyle;rounded=0;orthogonalLoop=1;jettySize=auto;html=1;exitX=0.5;exitY=0;exitDx=0;exitDy=0;" edge="1" parent="1" source="loVugANdDTNF3pcC0bMG-18">
          <mxGeometry relative="1" as="geometry">
            <mxPoint x="1080" y="1464" as="targetPoint" />
            <Array as="points">
              <mxPoint x="1227" y="1464" />
              <mxPoint x="1080" y="1464" />
            </Array>
          </mxGeometry>
        </mxCell>
        <mxCell id="loVugANdDTNF3pcC0bMG-42" value="Работа клиентом" style="edgeLabel;html=1;align=center;verticalAlign=middle;resizable=0;points=[];" vertex="1" connectable="0" parent="loVugANdDTNF3pcC0bMG-41">
          <mxGeometry x="0.5197" y="-1" relative="1" as="geometry">
            <mxPoint x="7" y="-8" as="offset" />
          </mxGeometry>
        </mxCell>
        <mxCell id="loVugANdDTNF3pcC0bMG-43" value="" style="endArrow=diamondThin;endFill=1;endSize=24;html=1;rounded=0;exitX=1;exitY=0.5;exitDx=0;exitDy=0;entryX=0;entryY=0;entryDx=0;entryDy=0;" edge="1" parent="1" source="loVugANdDTNF3pcC0bMG-27" target="loVugANdDTNF3pcC0bMG-10">
          <mxGeometry width="160" relative="1" as="geometry">
            <mxPoint x="710" y="1664" as="sourcePoint" />
            <mxPoint x="870" y="1664" as="targetPoint" />
          </mxGeometry>
        </mxCell>
        <mxCell id="loVugANdDTNF3pcC0bMG-44" value="" style="endArrow=diamondThin;endFill=0;endSize=24;html=1;rounded=0;entryX=0;entryY=0.041;entryDx=0;entryDy=0;entryPerimeter=0;exitX=1;exitY=0.5;exitDx=0;exitDy=0;" edge="1" parent="1" source="loVugANdDTNF3pcC0bMG-31" target="loVugANdDTNF3pcC0bMG-13">
          <mxGeometry width="160" relative="1" as="geometry">
            <mxPoint x="655" y="1675" as="sourcePoint" />
            <mxPoint x="770" y="1769" as="targetPoint" />
          </mxGeometry>
        </mxCell>
        <mxCell id="loVugANdDTNF3pcC0bMG-45" value="1..*" style="text;html=1;align=center;verticalAlign=middle;resizable=0;points=[];autosize=1;strokeColor=none;fillColor=none;" vertex="1" parent="1">
          <mxGeometry x="610" y="1814" width="40" height="30" as="geometry" />
        </mxCell>
        <mxCell id="loVugANdDTNF3pcC0bMG-46" value="*" style="text;html=1;align=center;verticalAlign=middle;resizable=0;points=[];autosize=1;strokeColor=none;fillColor=none;" vertex="1" parent="1">
          <mxGeometry x="645" y="1634" width="30" height="30" as="geometry" />
        </mxCell>
        <mxCell id="loVugANdDTNF3pcC0bMG-47" value="1" style="text;html=1;align=center;verticalAlign=middle;resizable=0;points=[];autosize=1;strokeColor=none;fillColor=none;" vertex="1" parent="1">
          <mxGeometry x="1225" y="1554" width="30" height="30" as="geometry" />
        </mxCell>
        <mxCell id="loVugANdDTNF3pcC0bMG-48" value="1" style="text;html=1;align=center;verticalAlign=middle;resizable=0;points=[];autosize=1;strokeColor=none;fillColor=none;" vertex="1" parent="1">
          <mxGeometry x="1080" y="1462" width="30" height="30" as="geometry" />
        </mxCell>
        <mxCell id="loVugANdDTNF3pcC0bMG-49" value="" style="edgeStyle=orthogonalEdgeStyle;rounded=0;orthogonalLoop=1;jettySize=auto;html=1;endArrow=oval;endFill=1;startArrow=none;startFill=0;" edge="1" parent="1" source="loVugANdDTNF3pcC0bMG-50" target="loVugANdDTNF3pcC0bMG-75">
          <mxGeometry relative="1" as="geometry">
            <Array as="points">
              <mxPoint x="1930" y="1760" />
              <mxPoint x="1930" y="1760" />
            </Array>
          </mxGeometry>
        </mxCell>
        <mxCell id="loVugANdDTNF3pcC0bMG-50" value="Agent" style="swimlane;fontStyle=0;childLayout=stackLayout;horizontal=1;startSize=26;fillColor=none;horizontalStack=0;resizeParent=1;resizeParentMax=0;resizeLast=0;collapsible=1;marginBottom=0;whiteSpace=wrap;html=1;" vertex="1" parent="1">
          <mxGeometry x="1860" y="1782" width="140" height="130" as="geometry" />
        </mxCell>
        <mxCell id="loVugANdDTNF3pcC0bMG-51" value="agent_id (PK)" style="text;strokeColor=none;fillColor=none;align=left;verticalAlign=top;spacingLeft=4;spacingRight=4;overflow=hidden;rotatable=0;points=[[0,0.5],[1,0.5]];portConstraint=eastwest;whiteSpace=wrap;html=1;" vertex="1" parent="loVugANdDTNF3pcC0bMG-50">
          <mxGeometry y="26" width="140" height="26" as="geometry" />
        </mxCell>
        <mxCell id="loVugANdDTNF3pcC0bMG-52" value="name" style="text;strokeColor=none;fillColor=none;align=left;verticalAlign=top;spacingLeft=4;spacingRight=4;overflow=hidden;rotatable=0;points=[[0,0.5],[1,0.5]];portConstraint=eastwest;whiteSpace=wrap;html=1;" vertex="1" parent="loVugANdDTNF3pcC0bMG-50">
          <mxGeometry y="52" width="140" height="26" as="geometry" />
        </mxCell>
        <mxCell id="loVugANdDTNF3pcC0bMG-53" value="phone number" style="text;strokeColor=none;fillColor=none;align=left;verticalAlign=top;spacingLeft=4;spacingRight=4;overflow=hidden;rotatable=0;points=[[0,0.5],[1,0.5]];portConstraint=eastwest;whiteSpace=wrap;html=1;" vertex="1" parent="loVugANdDTNF3pcC0bMG-50">
          <mxGeometry y="78" width="140" height="26" as="geometry" />
        </mxCell>
        <mxCell id="loVugANdDTNF3pcC0bMG-54" value="email" style="text;strokeColor=none;fillColor=none;align=left;verticalAlign=top;spacingLeft=4;spacingRight=4;overflow=hidden;rotatable=0;points=[[0,0.5],[1,0.5]];portConstraint=eastwest;whiteSpace=wrap;html=1;" vertex="1" parent="loVugANdDTNF3pcC0bMG-50">
          <mxGeometry y="104" width="140" height="26" as="geometry" />
        </mxCell>
        <mxCell id="loVugANdDTNF3pcC0bMG-55" value="Deal" style="swimlane;fontStyle=0;childLayout=stackLayout;horizontal=1;startSize=26;fillColor=none;horizontalStack=0;resizeParent=1;resizeParentMax=0;resizeLast=0;collapsible=1;marginBottom=0;whiteSpace=wrap;html=1;" vertex="1" parent="1">
          <mxGeometry x="1860" y="1960" width="140" height="156" as="geometry" />
        </mxCell>
        <mxCell id="loVugANdDTNF3pcC0bMG-56" value="deal_id (PK)" style="text;strokeColor=none;fillColor=none;align=left;verticalAlign=top;spacingLeft=4;spacingRight=4;overflow=hidden;rotatable=0;points=[[0,0.5],[1,0.5]];portConstraint=eastwest;whiteSpace=wrap;html=1;" vertex="1" parent="loVugANdDTNF3pcC0bMG-55">
          <mxGeometry y="26" width="140" height="26" as="geometry" />
        </mxCell>
        <mxCell id="loVugANdDTNF3pcC0bMG-57" value="object_id (FK)" style="text;strokeColor=none;fillColor=none;align=left;verticalAlign=top;spacingLeft=4;spacingRight=4;overflow=hidden;rotatable=0;points=[[0,0.5],[1,0.5]];portConstraint=eastwest;whiteSpace=wrap;html=1;" vertex="1" parent="loVugANdDTNF3pcC0bMG-55">
          <mxGeometry y="52" width="140" height="26" as="geometry" />
        </mxCell>
        <mxCell id="loVugANdDTNF3pcC0bMG-58" value="client_id (FK)" style="text;strokeColor=none;fillColor=none;align=left;verticalAlign=top;spacingLeft=4;spacingRight=4;overflow=hidden;rotatable=0;points=[[0,0.5],[1,0.5]];portConstraint=eastwest;whiteSpace=wrap;html=1;" vertex="1" parent="loVugANdDTNF3pcC0bMG-55">
          <mxGeometry y="78" width="140" height="26" as="geometry" />
        </mxCell>
        <mxCell id="loVugANdDTNF3pcC0bMG-59" value="date" style="text;strokeColor=none;fillColor=none;align=left;verticalAlign=top;spacingLeft=4;spacingRight=4;overflow=hidden;rotatable=0;points=[[0,0.5],[1,0.5]];portConstraint=eastwest;whiteSpace=wrap;html=1;" vertex="1" parent="loVugANdDTNF3pcC0bMG-55">
          <mxGeometry y="104" width="140" height="26" as="geometry" />
        </mxCell>
        <mxCell id="loVugANdDTNF3pcC0bMG-60" value="conditions" style="text;strokeColor=none;fillColor=none;align=left;verticalAlign=top;spacingLeft=4;spacingRight=4;overflow=hidden;rotatable=0;points=[[0,0.5],[1,0.5]];portConstraint=eastwest;whiteSpace=wrap;html=1;" vertex="1" parent="loVugANdDTNF3pcC0bMG-55">
          <mxGeometry y="130" width="140" height="26" as="geometry" />
        </mxCell>
        <mxCell id="loVugANdDTNF3pcC0bMG-61" value="Object" style="swimlane;fontStyle=0;childLayout=stackLayout;horizontal=1;startSize=26;fillColor=none;horizontalStack=0;resizeParent=1;resizeParentMax=0;resizeLast=0;collapsible=1;marginBottom=0;whiteSpace=wrap;html=1;" vertex="1" parent="1">
          <mxGeometry x="2100" y="1844" width="140" height="130" as="geometry" />
        </mxCell>
        <mxCell id="loVugANdDTNF3pcC0bMG-62" value="object_id (PK)" style="text;strokeColor=none;fillColor=none;align=left;verticalAlign=top;spacingLeft=4;spacingRight=4;overflow=hidden;rotatable=0;points=[[0,0.5],[1,0.5]];portConstraint=eastwest;whiteSpace=wrap;html=1;" vertex="1" parent="loVugANdDTNF3pcC0bMG-61">
          <mxGeometry y="26" width="140" height="26" as="geometry" />
        </mxCell>
        <mxCell id="loVugANdDTNF3pcC0bMG-63" value="address" style="text;strokeColor=none;fillColor=none;align=left;verticalAlign=top;spacingLeft=4;spacingRight=4;overflow=hidden;rotatable=0;points=[[0,0.5],[1,0.5]];portConstraint=eastwest;whiteSpace=wrap;html=1;" vertex="1" parent="loVugANdDTNF3pcC0bMG-61">
          <mxGeometry y="52" width="140" height="26" as="geometry" />
        </mxCell>
        <mxCell id="loVugANdDTNF3pcC0bMG-64" value="cost" style="text;strokeColor=none;fillColor=none;align=left;verticalAlign=top;spacingLeft=4;spacingRight=4;overflow=hidden;rotatable=0;points=[[0,0.5],[1,0.5]];portConstraint=eastwest;whiteSpace=wrap;html=1;" vertex="1" parent="loVugANdDTNF3pcC0bMG-61">
          <mxGeometry y="78" width="140" height="26" as="geometry" />
        </mxCell>
        <mxCell id="loVugANdDTNF3pcC0bMG-65" value="area" style="text;strokeColor=none;fillColor=none;align=left;verticalAlign=top;spacingLeft=4;spacingRight=4;overflow=hidden;rotatable=0;points=[[0,0.5],[1,0.5]];portConstraint=eastwest;whiteSpace=wrap;html=1;" vertex="1" parent="loVugANdDTNF3pcC0bMG-61">
          <mxGeometry y="104" width="140" height="26" as="geometry" />
        </mxCell>
        <mxCell id="loVugANdDTNF3pcC0bMG-66" value="Client" style="swimlane;fontStyle=0;childLayout=stackLayout;horizontal=1;startSize=26;fillColor=none;horizontalStack=0;resizeParent=1;resizeParentMax=0;resizeLast=0;collapsible=1;marginBottom=0;whiteSpace=wrap;html=1;" vertex="1" parent="1">
          <mxGeometry x="1630" y="1844" width="140" height="104" as="geometry" />
        </mxCell>
        <mxCell id="loVugANdDTNF3pcC0bMG-67" value="client_id (PK)" style="text;strokeColor=none;fillColor=none;align=left;verticalAlign=top;spacingLeft=4;spacingRight=4;overflow=hidden;rotatable=0;points=[[0,0.5],[1,0.5]];portConstraint=eastwest;whiteSpace=wrap;html=1;" vertex="1" parent="loVugANdDTNF3pcC0bMG-66">
          <mxGeometry y="26" width="140" height="26" as="geometry" />
        </mxCell>
        <mxCell id="loVugANdDTNF3pcC0bMG-68" value="name" style="text;strokeColor=none;fillColor=none;align=left;verticalAlign=top;spacingLeft=4;spacingRight=4;overflow=hidden;rotatable=0;points=[[0,0.5],[1,0.5]];portConstraint=eastwest;whiteSpace=wrap;html=1;" vertex="1" parent="loVugANdDTNF3pcC0bMG-66">
          <mxGeometry y="52" width="140" height="26" as="geometry" />
        </mxCell>
        <mxCell id="loVugANdDTNF3pcC0bMG-69" value="phone number" style="text;strokeColor=none;fillColor=none;align=left;verticalAlign=top;spacingLeft=4;spacingRight=4;overflow=hidden;rotatable=0;points=[[0,0.5],[1,0.5]];portConstraint=eastwest;whiteSpace=wrap;html=1;" vertex="1" parent="loVugANdDTNF3pcC0bMG-66">
          <mxGeometry y="78" width="140" height="26" as="geometry" />
        </mxCell>
        <mxCell id="loVugANdDTNF3pcC0bMG-70" value="Inspection" style="swimlane;fontStyle=0;childLayout=stackLayout;horizontal=1;startSize=26;fillColor=none;horizontalStack=0;resizeParent=1;resizeParentMax=0;resizeLast=0;collapsible=1;marginBottom=0;whiteSpace=wrap;html=1;" vertex="1" parent="1">
          <mxGeometry x="1860" y="1584" width="140" height="156" as="geometry" />
        </mxCell>
        <mxCell id="loVugANdDTNF3pcC0bMG-71" value="inspection_id (PK)" style="text;strokeColor=none;fillColor=none;align=left;verticalAlign=top;spacingLeft=4;spacingRight=4;overflow=hidden;rotatable=0;points=[[0,0.5],[1,0.5]];portConstraint=eastwest;whiteSpace=wrap;html=1;" vertex="1" parent="loVugANdDTNF3pcC0bMG-70">
          <mxGeometry y="26" width="140" height="26" as="geometry" />
        </mxCell>
        <mxCell id="loVugANdDTNF3pcC0bMG-72" value="agent_id (FK)" style="text;strokeColor=none;fillColor=none;align=left;verticalAlign=top;spacingLeft=4;spacingRight=4;overflow=hidden;rotatable=0;points=[[0,0.5],[1,0.5]];portConstraint=eastwest;whiteSpace=wrap;html=1;" vertex="1" parent="loVugANdDTNF3pcC0bMG-70">
          <mxGeometry y="52" width="140" height="26" as="geometry" />
        </mxCell>
        <mxCell id="loVugANdDTNF3pcC0bMG-73" value="client_id (FK)" style="text;strokeColor=none;fillColor=none;align=left;verticalAlign=top;spacingLeft=4;spacingRight=4;overflow=hidden;rotatable=0;points=[[0,0.5],[1,0.5]];portConstraint=eastwest;whiteSpace=wrap;html=1;" vertex="1" parent="loVugANdDTNF3pcC0bMG-70">
          <mxGeometry y="78" width="140" height="26" as="geometry" />
        </mxCell>
        <mxCell id="loVugANdDTNF3pcC0bMG-74" value="object_id (FK)" style="text;strokeColor=none;fillColor=none;align=left;verticalAlign=top;spacingLeft=4;spacingRight=4;overflow=hidden;rotatable=0;points=[[0,0.5],[1,0.5]];portConstraint=eastwest;whiteSpace=wrap;html=1;" vertex="1" parent="loVugANdDTNF3pcC0bMG-70">
          <mxGeometry y="104" width="140" height="26" as="geometry" />
        </mxCell>
        <mxCell id="loVugANdDTNF3pcC0bMG-75" value="date" style="text;strokeColor=none;fillColor=none;align=left;verticalAlign=top;spacingLeft=4;spacingRight=4;overflow=hidden;rotatable=0;points=[[0,0.5],[1,0.5]];portConstraint=eastwest;whiteSpace=wrap;html=1;" vertex="1" parent="loVugANdDTNF3pcC0bMG-70">
          <mxGeometry y="130" width="140" height="26" as="geometry" />
        </mxCell>
        <mxCell id="loVugANdDTNF3pcC0bMG-76" style="rounded=0;orthogonalLoop=1;jettySize=auto;html=1;exitX=1;exitY=0.5;exitDx=0;exitDy=0;entryX=0;entryY=0.5;entryDx=0;entryDy=0;endArrow=none;endFill=0;edgeStyle=orthogonalEdgeStyle;" edge="1" parent="1" source="loVugANdDTNF3pcC0bMG-67" target="loVugANdDTNF3pcC0bMG-75">
          <mxGeometry relative="1" as="geometry" />
        </mxCell>
        <mxCell id="loVugANdDTNF3pcC0bMG-77" style="rounded=0;orthogonalLoop=1;jettySize=auto;html=1;exitX=1;exitY=0.5;exitDx=0;exitDy=0;edgeStyle=elbowEdgeStyle;endArrow=none;endFill=0;entryX=0;entryY=0.5;entryDx=0;entryDy=0;" edge="1" parent="1" source="loVugANdDTNF3pcC0bMG-68" target="loVugANdDTNF3pcC0bMG-57">
          <mxGeometry relative="1" as="geometry">
            <mxPoint x="1860" y="1973" as="targetPoint" />
          </mxGeometry>
        </mxCell>
        <mxCell id="loVugANdDTNF3pcC0bMG-78" style="rounded=0;orthogonalLoop=1;jettySize=auto;html=1;exitX=1;exitY=0.5;exitDx=0;exitDy=0;entryX=0;entryY=0.5;entryDx=0;entryDy=0;edgeStyle=elbowEdgeStyle;endArrow=none;endFill=0;" edge="1" parent="1" source="loVugANdDTNF3pcC0bMG-75" target="loVugANdDTNF3pcC0bMG-62">
          <mxGeometry relative="1" as="geometry" />
        </mxCell>
        <mxCell id="loVugANdDTNF3pcC0bMG-79" style="rounded=0;orthogonalLoop=1;jettySize=auto;html=1;exitX=1;exitY=0.5;exitDx=0;exitDy=0;entryX=-0.013;entryY=0.269;entryDx=0;entryDy=0;entryPerimeter=0;edgeStyle=elbowEdgeStyle;endArrow=none;endFill=0;" edge="1" parent="1" source="loVugANdDTNF3pcC0bMG-57" target="loVugANdDTNF3pcC0bMG-64">
          <mxGeometry relative="1" as="geometry" />
        </mxCell>
        <mxCell id="loVugANdDTNF3pcC0bMG-80" value="" style="edgeStyle=orthogonalEdgeStyle;rounded=0;orthogonalLoop=1;jettySize=auto;html=1;endArrow=oval;endFill=1;startArrow=none;startFill=0;" edge="1" parent="1" source="loVugANdDTNF3pcC0bMG-81" target="loVugANdDTNF3pcC0bMG-106">
          <mxGeometry relative="1" as="geometry">
            <Array as="points">
              <mxPoint x="2895" y="1764" />
              <mxPoint x="2895" y="1764" />
            </Array>
          </mxGeometry>
        </mxCell>
        <mxCell id="loVugANdDTNF3pcC0bMG-81" value="Agent" style="swimlane;fontStyle=0;childLayout=stackLayout;horizontal=1;startSize=26;fillColor=none;horizontalStack=0;resizeParent=1;resizeParentMax=0;resizeLast=0;collapsible=1;marginBottom=0;whiteSpace=wrap;html=1;" vertex="1" parent="1">
          <mxGeometry x="2765" y="1784" width="260" height="130" as="geometry" />
        </mxCell>
        <mxCell id="loVugANdDTNF3pcC0bMG-82" value="agent_id SERIAL PRIMARY KEY" style="text;strokeColor=none;fillColor=none;align=left;verticalAlign=top;spacingLeft=4;spacingRight=4;overflow=hidden;rotatable=0;points=[[0,0.5],[1,0.5]];portConstraint=eastwest;whiteSpace=wrap;html=1;" vertex="1" parent="loVugANdDTNF3pcC0bMG-81">
          <mxGeometry y="26" width="260" height="26" as="geometry" />
        </mxCell>
        <mxCell id="loVugANdDTNF3pcC0bMG-83" value="name VARCHAR(25) NOT NULL" style="text;strokeColor=none;fillColor=none;align=left;verticalAlign=top;spacingLeft=4;spacingRight=4;overflow=hidden;rotatable=0;points=[[0,0.5],[1,0.5]];portConstraint=eastwest;whiteSpace=wrap;html=1;" vertex="1" parent="loVugANdDTNF3pcC0bMG-81">
          <mxGeometry y="52" width="260" height="26" as="geometry" />
        </mxCell>
        <mxCell id="loVugANdDTNF3pcC0bMG-84" value="phone number VARCHAR(20) NOT NULL" style="text;strokeColor=none;fillColor=none;align=left;verticalAlign=top;spacingLeft=4;spacingRight=4;overflow=hidden;rotatable=0;points=[[0,0.5],[1,0.5]];portConstraint=eastwest;whiteSpace=wrap;html=1;" vertex="1" parent="loVugANdDTNF3pcC0bMG-81">
          <mxGeometry y="78" width="260" height="26" as="geometry" />
        </mxCell>
        <mxCell id="loVugANdDTNF3pcC0bMG-85" value="email VARCHAR(35) NOT NULL" style="text;strokeColor=none;fillColor=none;align=left;verticalAlign=top;spacingLeft=4;spacingRight=4;overflow=hidden;rotatable=0;points=[[0,0.5],[1,0.5]];portConstraint=eastwest;whiteSpace=wrap;html=1;" vertex="1" parent="loVugANdDTNF3pcC0bMG-81">
          <mxGeometry y="104" width="260" height="26" as="geometry" />
        </mxCell>
        <mxCell id="loVugANdDTNF3pcC0bMG-86" value="Deal" style="swimlane;fontStyle=0;childLayout=stackLayout;horizontal=1;startSize=26;fillColor=none;horizontalStack=0;resizeParent=1;resizeParentMax=0;resizeLast=0;collapsible=1;marginBottom=0;whiteSpace=wrap;html=1;" vertex="1" parent="1">
          <mxGeometry x="2740" y="1974" width="310" height="156" as="geometry" />
        </mxCell>
        <mxCell id="loVugANdDTNF3pcC0bMG-87" value="deal_id SERIAL PRIMARY KEY" style="text;strokeColor=none;fillColor=none;align=left;verticalAlign=top;spacingLeft=4;spacingRight=4;overflow=hidden;rotatable=0;points=[[0,0.5],[1,0.5]];portConstraint=eastwest;whiteSpace=wrap;html=1;" vertex="1" parent="loVugANdDTNF3pcC0bMG-86">
          <mxGeometry y="26" width="310" height="26" as="geometry" />
        </mxCell>
        <mxCell id="loVugANdDTNF3pcC0bMG-88" value="object_id REFERENCES Object (object_id) NOT NULL" style="text;strokeColor=none;fillColor=none;align=left;verticalAlign=top;spacingLeft=4;spacingRight=4;overflow=hidden;rotatable=0;points=[[0,0.5],[1,0.5]];portConstraint=eastwest;whiteSpace=wrap;html=1;" vertex="1" parent="loVugANdDTNF3pcC0bMG-86">
          <mxGeometry y="52" width="310" height="26" as="geometry" />
        </mxCell>
        <mxCell id="loVugANdDTNF3pcC0bMG-89" value="client_id REFERENCES Client (client_id) NOT NULL" style="text;strokeColor=none;fillColor=none;align=left;verticalAlign=top;spacingLeft=4;spacingRight=4;overflow=hidden;rotatable=0;points=[[0,0.5],[1,0.5]];portConstraint=eastwest;whiteSpace=wrap;html=1;" vertex="1" parent="loVugANdDTNF3pcC0bMG-86">
          <mxGeometry y="78" width="310" height="26" as="geometry" />
        </mxCell>
        <mxCell id="loVugANdDTNF3pcC0bMG-90" value="date TIMESTAMP NOT NULL" style="text;strokeColor=none;fillColor=none;align=left;verticalAlign=top;spacingLeft=4;spacingRight=4;overflow=hidden;rotatable=0;points=[[0,0.5],[1,0.5]];portConstraint=eastwest;whiteSpace=wrap;html=1;" vertex="1" parent="loVugANdDTNF3pcC0bMG-86">
          <mxGeometry y="104" width="310" height="26" as="geometry" />
        </mxCell>
        <mxCell id="loVugANdDTNF3pcC0bMG-91" value="conditions VARCHAR(100) NOT NULL" style="text;strokeColor=none;fillColor=none;align=left;verticalAlign=top;spacingLeft=4;spacingRight=4;overflow=hidden;rotatable=0;points=[[0,0.5],[1,0.5]];portConstraint=eastwest;whiteSpace=wrap;html=1;" vertex="1" parent="loVugANdDTNF3pcC0bMG-86">
          <mxGeometry y="130" width="310" height="26" as="geometry" />
        </mxCell>
        <mxCell id="loVugANdDTNF3pcC0bMG-92" value="Object" style="swimlane;fontStyle=0;childLayout=stackLayout;horizontal=1;startSize=26;fillColor=none;horizontalStack=0;resizeParent=1;resizeParentMax=0;resizeLast=0;collapsible=1;marginBottom=0;whiteSpace=wrap;html=1;" vertex="1" parent="1">
          <mxGeometry x="3150" y="1838" width="210" height="130" as="geometry" />
        </mxCell>
        <mxCell id="loVugANdDTNF3pcC0bMG-93" value="object_id SERIAL PRIMARY KEY" style="text;strokeColor=none;fillColor=none;align=left;verticalAlign=top;spacingLeft=4;spacingRight=4;overflow=hidden;rotatable=0;points=[[0,0.5],[1,0.5]];portConstraint=eastwest;whiteSpace=wrap;html=1;" vertex="1" parent="loVugANdDTNF3pcC0bMG-92">
          <mxGeometry y="26" width="210" height="26" as="geometry" />
        </mxCell>
        <mxCell id="loVugANdDTNF3pcC0bMG-94" value="address VARCHAR(35) NOT NULL" style="text;strokeColor=none;fillColor=none;align=left;verticalAlign=top;spacingLeft=4;spacingRight=4;overflow=hidden;rotatable=0;points=[[0,0.5],[1,0.5]];portConstraint=eastwest;whiteSpace=wrap;html=1;" vertex="1" parent="loVugANdDTNF3pcC0bMG-92">
          <mxGeometry y="52" width="210" height="26" as="geometry" />
        </mxCell>
        <mxCell id="loVugANdDTNF3pcC0bMG-95" value="cost INT NOT NULL" style="text;strokeColor=none;fillColor=none;align=left;verticalAlign=top;spacingLeft=4;spacingRight=4;overflow=hidden;rotatable=0;points=[[0,0.5],[1,0.5]];portConstraint=eastwest;whiteSpace=wrap;html=1;" vertex="1" parent="loVugANdDTNF3pcC0bMG-92">
          <mxGeometry y="78" width="210" height="26" as="geometry" />
        </mxCell>
        <mxCell id="loVugANdDTNF3pcC0bMG-96" value="area INT NOT NULL" style="text;strokeColor=none;fillColor=none;align=left;verticalAlign=top;spacingLeft=4;spacingRight=4;overflow=hidden;rotatable=0;points=[[0,0.5],[1,0.5]];portConstraint=eastwest;whiteSpace=wrap;html=1;" vertex="1" parent="loVugANdDTNF3pcC0bMG-92">
          <mxGeometry y="104" width="210" height="26" as="geometry" />
        </mxCell>
        <mxCell id="loVugANdDTNF3pcC0bMG-97" value="Client" style="swimlane;fontStyle=0;childLayout=stackLayout;horizontal=1;startSize=26;fillColor=none;horizontalStack=0;resizeParent=1;resizeParentMax=0;resizeLast=0;collapsible=1;marginBottom=0;whiteSpace=wrap;html=1;" vertex="1" parent="1">
          <mxGeometry x="2410" y="1844" width="250" height="104" as="geometry" />
        </mxCell>
        <mxCell id="loVugANdDTNF3pcC0bMG-98" value="client_id SERIAL PRIMARY KEY" style="text;strokeColor=none;fillColor=none;align=left;verticalAlign=top;spacingLeft=4;spacingRight=4;overflow=hidden;rotatable=0;points=[[0,0.5],[1,0.5]];portConstraint=eastwest;whiteSpace=wrap;html=1;" vertex="1" parent="loVugANdDTNF3pcC0bMG-97">
          <mxGeometry y="26" width="250" height="26" as="geometry" />
        </mxCell>
        <mxCell id="loVugANdDTNF3pcC0bMG-99" value="name VARCHAR(25) NOT NULL" style="text;strokeColor=none;fillColor=none;align=left;verticalAlign=top;spacingLeft=4;spacingRight=4;overflow=hidden;rotatable=0;points=[[0,0.5],[1,0.5]];portConstraint=eastwest;whiteSpace=wrap;html=1;" vertex="1" parent="loVugANdDTNF3pcC0bMG-97">
          <mxGeometry y="52" width="250" height="26" as="geometry" />
        </mxCell>
        <mxCell id="loVugANdDTNF3pcC0bMG-100" value="phone number VARCHAR(20) NOT NULL" style="text;strokeColor=none;fillColor=none;align=left;verticalAlign=top;spacingLeft=4;spacingRight=4;overflow=hidden;rotatable=0;points=[[0,0.5],[1,0.5]];portConstraint=eastwest;whiteSpace=wrap;html=1;" vertex="1" parent="loVugANdDTNF3pcC0bMG-97">
          <mxGeometry y="78" width="250" height="26" as="geometry" />
        </mxCell>
        <mxCell id="loVugANdDTNF3pcC0bMG-101" value="Inspection" style="swimlane;fontStyle=0;childLayout=stackLayout;horizontal=1;startSize=26;fillColor=none;horizontalStack=0;resizeParent=1;resizeParentMax=0;resizeLast=0;collapsible=1;marginBottom=0;whiteSpace=wrap;html=1;" vertex="1" parent="1">
          <mxGeometry x="2740" y="1584" width="310" height="156" as="geometry" />
        </mxCell>
        <mxCell id="loVugANdDTNF3pcC0bMG-102" value="inspection_id SERIAL PRIMARY KEY" style="text;strokeColor=none;fillColor=none;align=left;verticalAlign=top;spacingLeft=4;spacingRight=4;overflow=hidden;rotatable=0;points=[[0,0.5],[1,0.5]];portConstraint=eastwest;whiteSpace=wrap;html=1;" vertex="1" parent="loVugANdDTNF3pcC0bMG-101">
          <mxGeometry y="26" width="310" height="26" as="geometry" />
        </mxCell>
        <mxCell id="loVugANdDTNF3pcC0bMG-103" value="agent_id REFERENCES Agent (agent_id) NOT NULL" style="text;strokeColor=none;fillColor=none;align=left;verticalAlign=top;spacingLeft=4;spacingRight=4;overflow=hidden;rotatable=0;points=[[0,0.5],[1,0.5]];portConstraint=eastwest;whiteSpace=wrap;html=1;" vertex="1" parent="loVugANdDTNF3pcC0bMG-101">
          <mxGeometry y="52" width="310" height="26" as="geometry" />
        </mxCell>
        <mxCell id="loVugANdDTNF3pcC0bMG-104" value="client_id REFERENCES Client (client_id) NOT NULL" style="text;strokeColor=none;fillColor=none;align=left;verticalAlign=top;spacingLeft=4;spacingRight=4;overflow=hidden;rotatable=0;points=[[0,0.5],[1,0.5]];portConstraint=eastwest;whiteSpace=wrap;html=1;" vertex="1" parent="loVugANdDTNF3pcC0bMG-101">
          <mxGeometry y="78" width="310" height="26" as="geometry" />
        </mxCell>
        <mxCell id="loVugANdDTNF3pcC0bMG-105" value="object_id REFERENCES Object (object_id) NOT NULL" style="text;strokeColor=none;fillColor=none;align=left;verticalAlign=top;spacingLeft=4;spacingRight=4;overflow=hidden;rotatable=0;points=[[0,0.5],[1,0.5]];portConstraint=eastwest;whiteSpace=wrap;html=1;" vertex="1" parent="loVugANdDTNF3pcC0bMG-101">
          <mxGeometry y="104" width="310" height="26" as="geometry" />
        </mxCell>
        <mxCell id="loVugANdDTNF3pcC0bMG-106" value="date" style="text;strokeColor=none;fillColor=none;align=left;verticalAlign=top;spacingLeft=4;spacingRight=4;overflow=hidden;rotatable=0;points=[[0,0.5],[1,0.5]];portConstraint=eastwest;whiteSpace=wrap;html=1;" vertex="1" parent="loVugANdDTNF3pcC0bMG-101">
          <mxGeometry y="130" width="310" height="26" as="geometry" />
        </mxCell>
        <mxCell id="loVugANdDTNF3pcC0bMG-107" style="rounded=0;orthogonalLoop=1;jettySize=auto;html=1;exitX=1;exitY=0.5;exitDx=0;exitDy=0;entryX=0;entryY=0.5;entryDx=0;entryDy=0;endArrow=none;endFill=0;edgeStyle=orthogonalEdgeStyle;" edge="1" parent="1" source="loVugANdDTNF3pcC0bMG-98" target="loVugANdDTNF3pcC0bMG-104">
          <mxGeometry relative="1" as="geometry">
            <Array as="points">
              <mxPoint x="2720" y="1883" />
              <mxPoint x="2720" y="1673" />
              <mxPoint x="2740" y="1673" />
            </Array>
          </mxGeometry>
        </mxCell>
        <mxCell id="loVugANdDTNF3pcC0bMG-108" style="rounded=0;orthogonalLoop=1;jettySize=auto;html=1;exitX=1;exitY=0.5;exitDx=0;exitDy=0;edgeStyle=elbowEdgeStyle;endArrow=none;endFill=0;entryX=0;entryY=0.5;entryDx=0;entryDy=0;" edge="1" parent="1" source="loVugANdDTNF3pcC0bMG-99" target="loVugANdDTNF3pcC0bMG-89">
          <mxGeometry relative="1" as="geometry">
            <mxPoint x="2750" y="1973" as="targetPoint" />
            <Array as="points">
              <mxPoint x="2720" y="1974" />
            </Array>
          </mxGeometry>
        </mxCell>
        <mxCell id="loVugANdDTNF3pcC0bMG-109" style="rounded=0;orthogonalLoop=1;jettySize=auto;html=1;exitX=1;exitY=0.5;exitDx=0;exitDy=0;entryX=0;entryY=0.5;entryDx=0;entryDy=0;edgeStyle=elbowEdgeStyle;endArrow=none;endFill=0;" edge="1" parent="1" source="loVugANdDTNF3pcC0bMG-105" target="loVugANdDTNF3pcC0bMG-93">
          <mxGeometry relative="1" as="geometry">
            <Array as="points">
              <mxPoint x="3070" y="1804" />
            </Array>
          </mxGeometry>
        </mxCell>
        <mxCell id="loVugANdDTNF3pcC0bMG-110" style="rounded=0;orthogonalLoop=1;jettySize=auto;html=1;exitX=1;exitY=0.5;exitDx=0;exitDy=0;entryX=-0.013;entryY=0.269;entryDx=0;entryDy=0;entryPerimeter=0;edgeStyle=elbowEdgeStyle;endArrow=none;endFill=0;" edge="1" parent="1" source="loVugANdDTNF3pcC0bMG-88" target="loVugANdDTNF3pcC0bMG-95">
          <mxGeometry relative="1" as="geometry">
            <Array as="points">
              <mxPoint x="3070" y="1974" />
            </Array>
          </mxGeometry>
        </mxCell>
        <mxCell id="loVugANdDTNF3pcC0bMG-131" value="" style="edgeStyle=orthogonalEdgeStyle;rounded=0;orthogonalLoop=1;jettySize=auto;html=1;endArrow=none;endFill=0;startArrow=ERmandOne;startFill=0;" edge="1" parent="1" source="loVugANdDTNF3pcC0bMG-111" target="loVugANdDTNF3pcC0bMG-130">
          <mxGeometry relative="1" as="geometry" />
        </mxCell>
        <mxCell id="loVugANdDTNF3pcC0bMG-111" value="Сделка" style="rounded=0;whiteSpace=wrap;html=1;" vertex="1" parent="1">
          <mxGeometry x="1865" y="2658" width="109" height="40" as="geometry" />
        </mxCell>
        <mxCell id="loVugANdDTNF3pcC0bMG-121" value="" style="edgeStyle=orthogonalEdgeStyle;rounded=0;orthogonalLoop=1;jettySize=auto;html=1;endArrow=none;endFill=0;startArrow=ERmandOne;startFill=0;" edge="1" parent="1" source="loVugANdDTNF3pcC0bMG-112" target="loVugANdDTNF3pcC0bMG-116">
          <mxGeometry relative="1" as="geometry" />
        </mxCell>
        <mxCell id="loVugANdDTNF3pcC0bMG-122" value="" style="edgeStyle=orthogonalEdgeStyle;rounded=0;orthogonalLoop=1;jettySize=auto;html=1;endArrow=none;endFill=0;startArrow=ERmandOne;startFill=0;" edge="1" parent="1" source="loVugANdDTNF3pcC0bMG-112" target="loVugANdDTNF3pcC0bMG-120">
          <mxGeometry relative="1" as="geometry" />
        </mxCell>
        <mxCell id="loVugANdDTNF3pcC0bMG-112" value="Клиент" style="rounded=0;whiteSpace=wrap;html=1;" vertex="1" parent="1">
          <mxGeometry x="1865" y="2462" width="109" height="40" as="geometry" />
        </mxCell>
        <mxCell id="loVugANdDTNF3pcC0bMG-113" value="Объект" style="rounded=0;whiteSpace=wrap;html=1;" vertex="1" parent="1">
          <mxGeometry x="2191" y="2658" width="109" height="40" as="geometry" />
        </mxCell>
        <mxCell id="loVugANdDTNF3pcC0bMG-125" value="" style="edgeStyle=orthogonalEdgeStyle;rounded=0;orthogonalLoop=1;jettySize=auto;html=1;endArrow=none;endFill=0;startArrow=ERoneToMany;startFill=0;" edge="1" parent="1" source="loVugANdDTNF3pcC0bMG-114" target="loVugANdDTNF3pcC0bMG-119">
          <mxGeometry relative="1" as="geometry" />
        </mxCell>
        <mxCell id="loVugANdDTNF3pcC0bMG-128" value="" style="edgeStyle=orthogonalEdgeStyle;rounded=0;orthogonalLoop=1;jettySize=auto;html=1;strokeColor=default;align=center;verticalAlign=middle;fontFamily=Helvetica;fontSize=11;fontColor=default;labelBackgroundColor=default;endArrow=none;endFill=0;startArrow=ERmandOne;startFill=0;" edge="1" parent="1" source="loVugANdDTNF3pcC0bMG-114" target="loVugANdDTNF3pcC0bMG-127">
          <mxGeometry relative="1" as="geometry" />
        </mxCell>
        <mxCell id="loVugANdDTNF3pcC0bMG-114" value="Запрос на осмотр" style="rounded=0;whiteSpace=wrap;html=1;" vertex="1" parent="1">
          <mxGeometry x="2191" y="2462" width="109" height="40" as="geometry" />
        </mxCell>
        <mxCell id="loVugANdDTNF3pcC0bMG-115" value="Агент" style="rounded=0;whiteSpace=wrap;html=1;" vertex="1" parent="1">
          <mxGeometry x="2524" y="2462" width="109" height="40" as="geometry" />
        </mxCell>
        <mxCell id="loVugANdDTNF3pcC0bMG-124" value="" style="edgeStyle=orthogonalEdgeStyle;rounded=0;orthogonalLoop=1;jettySize=auto;html=1;endArrow=ERone;endFill=0;" edge="1" parent="1" source="loVugANdDTNF3pcC0bMG-116" target="loVugANdDTNF3pcC0bMG-114">
          <mxGeometry relative="1" as="geometry" />
        </mxCell>
        <mxCell id="loVugANdDTNF3pcC0bMG-116" value="Создает" style="rhombus;whiteSpace=wrap;html=1;" vertex="1" parent="1">
          <mxGeometry x="2050" y="2442" width="80" height="80" as="geometry" />
        </mxCell>
        <mxCell id="loVugANdDTNF3pcC0bMG-126" value="" style="edgeStyle=orthogonalEdgeStyle;rounded=0;orthogonalLoop=1;jettySize=auto;html=1;endArrow=ERmandOne;endFill=0;" edge="1" parent="1" source="loVugANdDTNF3pcC0bMG-119" target="loVugANdDTNF3pcC0bMG-115">
          <mxGeometry relative="1" as="geometry" />
        </mxCell>
        <mxCell id="loVugANdDTNF3pcC0bMG-119" value="Проводит" style="rhombus;whiteSpace=wrap;html=1;" vertex="1" parent="1">
          <mxGeometry x="2363" y="2442" width="107" height="80" as="geometry" />
        </mxCell>
        <mxCell id="loVugANdDTNF3pcC0bMG-123" value="" style="edgeStyle=orthogonalEdgeStyle;rounded=0;orthogonalLoop=1;jettySize=auto;html=1;endArrow=ERmandOne;endFill=0;" edge="1" parent="1" source="loVugANdDTNF3pcC0bMG-120" target="loVugANdDTNF3pcC0bMG-111">
          <mxGeometry relative="1" as="geometry" />
        </mxCell>
        <mxCell id="loVugANdDTNF3pcC0bMG-120" value="Заключает" style="rhombus;whiteSpace=wrap;html=1;" vertex="1" parent="1">
          <mxGeometry x="1879.5" y="2535" width="80" height="80" as="geometry" />
        </mxCell>
        <mxCell id="loVugANdDTNF3pcC0bMG-129" value="" style="edgeStyle=orthogonalEdgeStyle;rounded=0;orthogonalLoop=1;jettySize=auto;html=1;strokeColor=default;align=center;verticalAlign=middle;fontFamily=Helvetica;fontSize=11;fontColor=default;labelBackgroundColor=default;endArrow=ERmandOne;endFill=0;" edge="1" parent="1" source="loVugANdDTNF3pcC0bMG-127" target="loVugANdDTNF3pcC0bMG-113">
          <mxGeometry relative="1" as="geometry" />
        </mxCell>
        <mxCell id="loVugANdDTNF3pcC0bMG-127" value="Является&lt;div&gt;объектом&lt;/div&gt;" style="rhombus;whiteSpace=wrap;html=1;" vertex="1" parent="1">
          <mxGeometry x="2205.5" y="2552" width="80" height="80" as="geometry" />
        </mxCell>
        <mxCell id="loVugANdDTNF3pcC0bMG-132" value="" style="edgeStyle=orthogonalEdgeStyle;rounded=0;orthogonalLoop=1;jettySize=auto;html=1;endArrow=ERmandOne;endFill=0;" edge="1" parent="1" source="loVugANdDTNF3pcC0bMG-130" target="loVugANdDTNF3pcC0bMG-113">
          <mxGeometry relative="1" as="geometry" />
        </mxCell>
        <mxCell id="loVugANdDTNF3pcC0bMG-130" value="Является&lt;div&gt;объектом&lt;/div&gt;" style="rhombus;whiteSpace=wrap;html=1;" vertex="1" parent="1">
          <mxGeometry x="2042" y="2638" width="80" height="80" as="geometry" />
        </mxCell>
        <mxCell id="loVugANdDTNF3pcC0bMG-137" value="" style="rounded=0;orthogonalLoop=1;jettySize=auto;html=1;endArrow=none;endFill=0;" edge="1" parent="1" source="loVugANdDTNF3pcC0bMG-133" target="loVugANdDTNF3pcC0bMG-113">
          <mxGeometry relative="1" as="geometry" />
        </mxCell>
        <mxCell id="loVugANdDTNF3pcC0bMG-133" value="id объекта" style="ellipse;whiteSpace=wrap;html=1;" vertex="1" parent="1">
          <mxGeometry x="2347" y="2692" width="76" height="31" as="geometry" />
        </mxCell>
        <mxCell id="loVugANdDTNF3pcC0bMG-142" style="edgeStyle=none;rounded=0;orthogonalLoop=1;jettySize=auto;html=1;exitX=0.5;exitY=0;exitDx=0;exitDy=0;strokeColor=default;align=center;verticalAlign=middle;fontFamily=Helvetica;fontSize=11;fontColor=default;labelBackgroundColor=default;endArrow=none;endFill=0;" edge="1" parent="1" source="loVugANdDTNF3pcC0bMG-134" target="loVugANdDTNF3pcC0bMG-113">
          <mxGeometry relative="1" as="geometry" />
        </mxCell>
        <mxCell id="loVugANdDTNF3pcC0bMG-134" value="площадь" style="ellipse;whiteSpace=wrap;html=1;" vertex="1" parent="1">
          <mxGeometry x="2144" y="2737" width="73" height="32.5" as="geometry" />
        </mxCell>
        <mxCell id="loVugANdDTNF3pcC0bMG-141" style="edgeStyle=none;rounded=0;orthogonalLoop=1;jettySize=auto;html=1;exitX=0.5;exitY=0;exitDx=0;exitDy=0;strokeColor=default;align=center;verticalAlign=middle;fontFamily=Helvetica;fontSize=11;fontColor=default;labelBackgroundColor=default;endArrow=none;endFill=0;" edge="1" parent="1" source="loVugANdDTNF3pcC0bMG-135" target="loVugANdDTNF3pcC0bMG-113">
          <mxGeometry relative="1" as="geometry" />
        </mxCell>
        <mxCell id="loVugANdDTNF3pcC0bMG-135" value="дата" style="ellipse;whiteSpace=wrap;html=1;" vertex="1" parent="1">
          <mxGeometry x="2217" y="2760" width="79" height="36.5" as="geometry" />
        </mxCell>
        <mxCell id="loVugANdDTNF3pcC0bMG-140" style="edgeStyle=none;rounded=0;orthogonalLoop=1;jettySize=auto;html=1;exitX=0;exitY=0;exitDx=0;exitDy=0;strokeColor=default;align=center;verticalAlign=middle;fontFamily=Helvetica;fontSize=11;fontColor=default;labelBackgroundColor=default;endArrow=none;endFill=0;" edge="1" parent="1" source="loVugANdDTNF3pcC0bMG-136" target="loVugANdDTNF3pcC0bMG-113">
          <mxGeometry relative="1" as="geometry" />
        </mxCell>
        <mxCell id="loVugANdDTNF3pcC0bMG-136" value="цена" style="ellipse;whiteSpace=wrap;html=1;" vertex="1" parent="1">
          <mxGeometry x="2298" y="2737" width="75" height="34.5" as="geometry" />
        </mxCell>
        <mxCell id="loVugANdDTNF3pcC0bMG-153" style="edgeStyle=none;rounded=0;orthogonalLoop=1;jettySize=auto;html=1;exitX=1;exitY=0.5;exitDx=0;exitDy=0;strokeColor=default;align=center;verticalAlign=middle;fontFamily=Helvetica;fontSize=11;fontColor=default;labelBackgroundColor=default;endArrow=none;endFill=0;" edge="1" parent="1" source="loVugANdDTNF3pcC0bMG-143" target="loVugANdDTNF3pcC0bMG-111">
          <mxGeometry relative="1" as="geometry" />
        </mxCell>
        <mxCell id="loVugANdDTNF3pcC0bMG-143" value="id клиента" style="ellipse;whiteSpace=wrap;html=1;" vertex="1" parent="1">
          <mxGeometry x="1759" y="2648" width="73" height="32.5" as="geometry" />
        </mxCell>
        <mxCell id="loVugANdDTNF3pcC0bMG-152" style="edgeStyle=none;rounded=0;orthogonalLoop=1;jettySize=auto;html=1;exitX=1;exitY=0.5;exitDx=0;exitDy=0;strokeColor=default;align=center;verticalAlign=middle;fontFamily=Helvetica;fontSize=11;fontColor=default;labelBackgroundColor=default;endArrow=none;endFill=0;" edge="1" parent="1" source="loVugANdDTNF3pcC0bMG-145" target="loVugANdDTNF3pcC0bMG-111">
          <mxGeometry relative="1" as="geometry" />
        </mxCell>
        <mxCell id="loVugANdDTNF3pcC0bMG-145" value="дата" style="ellipse;whiteSpace=wrap;html=1;" vertex="1" parent="1">
          <mxGeometry x="1763" y="2690" width="69" height="31" as="geometry" />
        </mxCell>
        <mxCell id="loVugANdDTNF3pcC0bMG-151" style="edgeStyle=none;rounded=0;orthogonalLoop=1;jettySize=auto;html=1;exitX=1;exitY=0;exitDx=0;exitDy=0;strokeColor=default;align=center;verticalAlign=middle;fontFamily=Helvetica;fontSize=11;fontColor=default;labelBackgroundColor=default;endArrow=none;endFill=0;" edge="1" parent="1" source="loVugANdDTNF3pcC0bMG-146" target="loVugANdDTNF3pcC0bMG-111">
          <mxGeometry relative="1" as="geometry" />
        </mxCell>
        <mxCell id="loVugANdDTNF3pcC0bMG-146" value="условия" style="ellipse;whiteSpace=wrap;html=1;" vertex="1" parent="1">
          <mxGeometry x="1812" y="2721" width="75" height="34.5" as="geometry" />
        </mxCell>
        <mxCell id="loVugANdDTNF3pcC0bMG-150" style="edgeStyle=none;rounded=0;orthogonalLoop=1;jettySize=auto;html=1;exitX=0.5;exitY=0;exitDx=0;exitDy=0;strokeColor=default;align=center;verticalAlign=middle;fontFamily=Helvetica;fontSize=11;fontColor=default;labelBackgroundColor=default;endArrow=none;endFill=0;" edge="1" parent="1" source="loVugANdDTNF3pcC0bMG-147" target="loVugANdDTNF3pcC0bMG-111">
          <mxGeometry relative="1" as="geometry" />
        </mxCell>
        <mxCell id="loVugANdDTNF3pcC0bMG-147" value="id сделки" style="ellipse;whiteSpace=wrap;html=1;" vertex="1" parent="1">
          <mxGeometry x="1879.5" y="2745" width="79" height="36" as="geometry" />
        </mxCell>
        <mxCell id="loVugANdDTNF3pcC0bMG-149" style="edgeStyle=none;rounded=0;orthogonalLoop=1;jettySize=auto;html=1;exitX=0.5;exitY=0;exitDx=0;exitDy=0;strokeColor=default;align=center;verticalAlign=middle;fontFamily=Helvetica;fontSize=11;fontColor=default;labelBackgroundColor=default;endArrow=none;endFill=0;" edge="1" parent="1" source="loVugANdDTNF3pcC0bMG-148" target="loVugANdDTNF3pcC0bMG-111">
          <mxGeometry relative="1" as="geometry" />
        </mxCell>
        <mxCell id="loVugANdDTNF3pcC0bMG-148" value="id объекта" style="ellipse;whiteSpace=wrap;html=1;" vertex="1" parent="1">
          <mxGeometry x="1953" y="2714" width="76" height="31" as="geometry" />
        </mxCell>
        <mxCell id="loVugANdDTNF3pcC0bMG-159" style="edgeStyle=none;rounded=0;orthogonalLoop=1;jettySize=auto;html=1;exitX=1;exitY=1;exitDx=0;exitDy=0;strokeColor=default;align=center;verticalAlign=middle;fontFamily=Helvetica;fontSize=11;fontColor=default;labelBackgroundColor=default;endArrow=none;endFill=0;" edge="1" parent="1" source="loVugANdDTNF3pcC0bMG-154" target="loVugANdDTNF3pcC0bMG-112">
          <mxGeometry relative="1" as="geometry" />
        </mxCell>
        <mxCell id="loVugANdDTNF3pcC0bMG-154" value="id клиента" style="ellipse;whiteSpace=wrap;html=1;" vertex="1" parent="1">
          <mxGeometry x="1767" y="2439" width="73" height="32.5" as="geometry" />
        </mxCell>
        <mxCell id="loVugANdDTNF3pcC0bMG-158" style="edgeStyle=none;rounded=0;orthogonalLoop=1;jettySize=auto;html=1;exitX=1;exitY=1;exitDx=0;exitDy=0;strokeColor=default;align=center;verticalAlign=middle;fontFamily=Helvetica;fontSize=11;fontColor=default;labelBackgroundColor=default;endArrow=none;endFill=0;" edge="1" parent="1" source="loVugANdDTNF3pcC0bMG-155" target="loVugANdDTNF3pcC0bMG-112">
          <mxGeometry relative="1" as="geometry" />
        </mxCell>
        <mxCell id="loVugANdDTNF3pcC0bMG-155" value="имя" style="ellipse;whiteSpace=wrap;html=1;" vertex="1" parent="1">
          <mxGeometry x="1818" y="2400" width="69" height="31" as="geometry" />
        </mxCell>
        <mxCell id="loVugANdDTNF3pcC0bMG-157" style="edgeStyle=none;rounded=0;orthogonalLoop=1;jettySize=auto;html=1;exitX=0.5;exitY=1;exitDx=0;exitDy=0;strokeColor=default;align=center;verticalAlign=middle;fontFamily=Helvetica;fontSize=11;fontColor=default;labelBackgroundColor=default;endArrow=none;endFill=0;" edge="1" parent="1" source="loVugANdDTNF3pcC0bMG-156" target="loVugANdDTNF3pcC0bMG-112">
          <mxGeometry relative="1" as="geometry" />
        </mxCell>
        <mxCell id="loVugANdDTNF3pcC0bMG-156" value="телефон" style="ellipse;whiteSpace=wrap;html=1;" vertex="1" parent="1">
          <mxGeometry x="1889.5" y="2388" width="69" height="31" as="geometry" />
        </mxCell>
        <mxCell id="loVugANdDTNF3pcC0bMG-165" style="edgeStyle=none;rounded=0;orthogonalLoop=1;jettySize=auto;html=1;exitX=1;exitY=1;exitDx=0;exitDy=0;strokeColor=default;align=center;verticalAlign=middle;fontFamily=Helvetica;fontSize=11;fontColor=default;labelBackgroundColor=default;endArrow=none;endFill=0;" edge="1" parent="1" source="loVugANdDTNF3pcC0bMG-160" target="loVugANdDTNF3pcC0bMG-114">
          <mxGeometry relative="1" as="geometry" />
        </mxCell>
        <mxCell id="loVugANdDTNF3pcC0bMG-160" value="id клиента" style="ellipse;whiteSpace=wrap;html=1;" vertex="1" parent="1">
          <mxGeometry x="2079" y="2375.5" width="73" height="32.5" as="geometry" />
        </mxCell>
        <mxCell id="loVugANdDTNF3pcC0bMG-166" style="edgeStyle=none;rounded=0;orthogonalLoop=1;jettySize=auto;html=1;exitX=1;exitY=1;exitDx=0;exitDy=0;strokeColor=default;align=center;verticalAlign=middle;fontFamily=Helvetica;fontSize=11;fontColor=default;labelBackgroundColor=default;endArrow=none;endFill=0;" edge="1" parent="1" source="loVugANdDTNF3pcC0bMG-161" target="loVugANdDTNF3pcC0bMG-114">
          <mxGeometry relative="1" as="geometry" />
        </mxCell>
        <mxCell id="loVugANdDTNF3pcC0bMG-161" value="id объекта" style="ellipse;whiteSpace=wrap;html=1;" vertex="1" parent="1">
          <mxGeometry x="2122" y="2341" width="76" height="31" as="geometry" />
        </mxCell>
        <mxCell id="loVugANdDTNF3pcC0bMG-167" style="edgeStyle=none;rounded=0;orthogonalLoop=1;jettySize=auto;html=1;exitX=0.5;exitY=1;exitDx=0;exitDy=0;strokeColor=default;align=center;verticalAlign=middle;fontFamily=Helvetica;fontSize=11;fontColor=default;labelBackgroundColor=default;endArrow=none;endFill=0;" edge="1" parent="1" source="loVugANdDTNF3pcC0bMG-162" target="loVugANdDTNF3pcC0bMG-114">
          <mxGeometry relative="1" as="geometry" />
        </mxCell>
        <mxCell id="loVugANdDTNF3pcC0bMG-162" value="дата" style="ellipse;whiteSpace=wrap;html=1;" vertex="1" parent="1">
          <mxGeometry x="2198" y="2319" width="68" height="33" as="geometry" />
        </mxCell>
        <mxCell id="loVugANdDTNF3pcC0bMG-169" style="edgeStyle=none;rounded=0;orthogonalLoop=1;jettySize=auto;html=1;exitX=0;exitY=1;exitDx=0;exitDy=0;strokeColor=default;align=center;verticalAlign=middle;fontFamily=Helvetica;fontSize=11;fontColor=default;labelBackgroundColor=default;endArrow=none;endFill=0;" edge="1" parent="1" source="loVugANdDTNF3pcC0bMG-163" target="loVugANdDTNF3pcC0bMG-114">
          <mxGeometry relative="1" as="geometry" />
        </mxCell>
        <mxCell id="loVugANdDTNF3pcC0bMG-163" value="id агента" style="ellipse;whiteSpace=wrap;html=1;" vertex="1" parent="1">
          <mxGeometry x="2307" y="2377" width="76" height="31" as="geometry" />
        </mxCell>
        <mxCell id="loVugANdDTNF3pcC0bMG-168" style="edgeStyle=none;rounded=0;orthogonalLoop=1;jettySize=auto;html=1;exitX=0;exitY=1;exitDx=0;exitDy=0;strokeColor=default;align=center;verticalAlign=middle;fontFamily=Helvetica;fontSize=11;fontColor=default;labelBackgroundColor=default;endArrow=none;endFill=0;" edge="1" parent="1" source="loVugANdDTNF3pcC0bMG-164" target="loVugANdDTNF3pcC0bMG-114">
          <mxGeometry relative="1" as="geometry" />
        </mxCell>
        <mxCell id="loVugANdDTNF3pcC0bMG-164" value="id запроса" style="ellipse;whiteSpace=wrap;html=1;" vertex="1" parent="1">
          <mxGeometry x="2261" y="2344.5" width="76" height="31" as="geometry" />
        </mxCell>
        <mxCell id="loVugANdDTNF3pcC0bMG-175" style="edgeStyle=none;rounded=0;orthogonalLoop=1;jettySize=auto;html=1;exitX=0.5;exitY=1;exitDx=0;exitDy=0;strokeColor=default;align=center;verticalAlign=middle;fontFamily=Helvetica;fontSize=11;fontColor=default;labelBackgroundColor=default;endArrow=none;endFill=0;" edge="1" parent="1" source="loVugANdDTNF3pcC0bMG-170" target="loVugANdDTNF3pcC0bMG-115">
          <mxGeometry relative="1" as="geometry" />
        </mxCell>
        <mxCell id="loVugANdDTNF3pcC0bMG-170" value="id агента" style="ellipse;whiteSpace=wrap;html=1;" vertex="1" parent="1">
          <mxGeometry x="2526" y="2346" width="76" height="31" as="geometry" />
        </mxCell>
        <mxCell id="loVugANdDTNF3pcC0bMG-174" style="edgeStyle=none;rounded=0;orthogonalLoop=1;jettySize=auto;html=1;exitX=0.5;exitY=1;exitDx=0;exitDy=0;strokeColor=default;align=center;verticalAlign=middle;fontFamily=Helvetica;fontSize=11;fontColor=default;labelBackgroundColor=default;endArrow=none;endFill=0;" edge="1" parent="1" source="loVugANdDTNF3pcC0bMG-171" target="loVugANdDTNF3pcC0bMG-115">
          <mxGeometry relative="1" as="geometry" />
        </mxCell>
        <mxCell id="loVugANdDTNF3pcC0bMG-171" value="имя" style="ellipse;whiteSpace=wrap;html=1;" vertex="1" parent="1">
          <mxGeometry x="2470" y="2377" width="69" height="31" as="geometry" />
        </mxCell>
        <mxCell id="loVugANdDTNF3pcC0bMG-176" style="edgeStyle=none;rounded=0;orthogonalLoop=1;jettySize=auto;html=1;exitX=0;exitY=1;exitDx=0;exitDy=0;strokeColor=default;align=center;verticalAlign=middle;fontFamily=Helvetica;fontSize=11;fontColor=default;labelBackgroundColor=default;endArrow=none;endFill=0;" edge="1" parent="1" source="loVugANdDTNF3pcC0bMG-172" target="loVugANdDTNF3pcC0bMG-115">
          <mxGeometry relative="1" as="geometry" />
        </mxCell>
        <mxCell id="loVugANdDTNF3pcC0bMG-172" value="телефон" style="ellipse;whiteSpace=wrap;html=1;" vertex="1" parent="1">
          <mxGeometry x="2611" y="2344.5" width="69" height="31" as="geometry" />
        </mxCell>
        <mxCell id="loVugANdDTNF3pcC0bMG-177" style="edgeStyle=none;rounded=0;orthogonalLoop=1;jettySize=auto;html=1;exitX=0;exitY=1;exitDx=0;exitDy=0;strokeColor=default;align=center;verticalAlign=middle;fontFamily=Helvetica;fontSize=11;fontColor=default;labelBackgroundColor=default;endArrow=none;endFill=0;" edge="1" parent="1" source="loVugANdDTNF3pcC0bMG-173" target="loVugANdDTNF3pcC0bMG-115">
          <mxGeometry relative="1" as="geometry" />
        </mxCell>
        <mxCell id="loVugANdDTNF3pcC0bMG-173" value="почта" style="ellipse;whiteSpace=wrap;html=1;" vertex="1" parent="1">
          <mxGeometry x="2674" y="2372" width="69" height="31" as="geometry" />
        </mxCell>
      </root>
    </mxGraphModel>
  </diagram>
</mxfile>
